<?xml version="1.0" encoding="iso-8859-1"?>
<!-- Generator: Adobe Illustrator 19.0.0, SVG Export Plug-In . SVG Version: 6.00 Build 0)  -->
<svg version="1.1" id="Layer_1" xmlns="http://www.w3.org/2000/svg" xmlns:xlink="http://www.w3.org/1999/xlink" x="0px" y="0px"
	 viewBox="0 0 282.365 282.365" style="enable-background:new 0 0 282.365 282.365;" xml:space="preserve">
<g>
	<g>
		<g>
			<path d="M274.865,87.368h-32.069v-9.233h8.09c4.142,0,7.5-3.358,7.5-7.5V23.998c0-4.142-3.358-7.5-7.5-7.5H31.479
				c-4.142,0-7.5,3.358-7.5,7.5v46.636c0,4.142,3.358,7.5,7.5,7.5h8.09v9.233H7.5c-4.142,0-7.5,3.358-7.5,7.5v163.499
				c0,4.142,3.358,7.5,7.5,7.5c4.436,0,262.893,0,267.365,0c4.142,0,7.5-3.358,7.5-7.5c0-6.838,0-156.893,0-163.499
				C282.365,90.727,279.007,87.368,274.865,87.368z M38.979,63.134V31.498h204.406v31.636H38.979z M227.796,78.134v9.233H54.569
				v-9.233H227.796z M165.138,230.368h-6.715c-4.142,0-7.5,3.358-7.5,7.5v13H15V102.368h252.365v111.673
				c-1.227-2.471-3.769-4.174-6.715-4.174h-9.506v-75.5c0-4.142-3.358-7.5-7.5-7.5h-54c-4.142,0-7.5,3.358-7.5,7.5v75.5h-9.506
				c-4.142,0-7.5,3.358-7.5,7.5V230.368z M243.645,224.868h9.506v5.5h-73.012v-5.5h9.506H243.645z M197.145,209.868v-68h39v68
				H197.145z M267.366,250.868h-0.001H165.924v-5.5h6.715h88.012h6.715V250.868z"/>
			<path d="M141.183,126.868H31.479c-4.142,0-7.5,3.358-7.5,7.5v58.746c0,4.142,3.358,7.5,7.5,7.5h109.703
				c4.142,0,7.5-3.358,7.5-7.5v-58.746C148.683,130.225,145.325,126.868,141.183,126.868z M38.979,185.613v-43.746h94.703v43.746
				H38.979z"/>
			<path d="M141.183,209.868H31.479c-4.142,0-7.5,3.358-7.5,7.5c0,4.142,3.358,7.5,7.5,7.5h109.703c4.142,0,7.5-3.358,7.5-7.5
				C148.683,213.225,145.325,209.868,141.183,209.868z"/>
		</g>
	</g>
</g>
<g>
</g>
<g>
</g>
<g>
</g>
<g>
</g>
<g>
</g>
<g>
</g>
<g>
</g>
<g>
</g>
<g>
</g>
<g>
</g>
<g>
</g>
<g>
</g>
<g>
</g>
<g>
</g>
<g>
</g>
</svg>
