<?xml version="1.0" standalone="no"?><svg xmlns="http://www.w3.org/2000/svg" viewBox="0 0 1440 320"><path fill="#ffd359" fill-opacity="1" d="M0,96L10.4,85.3C20.9,75,42,53,63,74.7C83.5,96,104,160,125,160C146.1,160,167,96,188,101.3C208.7,107,230,181,250,186.7C271.3,192,292,128,313,101.3C333.9,75,355,85,376,128C396.5,171,417,245,438,266.7C459.1,288,480,256,501,202.7C521.7,149,543,75,563,74.7C584.3,75,605,149,626,160C647,171,668,117,689,128C709.6,139,730,213,751,234.7C772.2,256,793,224,814,192C834.8,160,856,128,877,117.3C897.4,107,918,117,939,106.7C960,96,981,64,1002,64C1022.6,64,1043,96,1064,133.3C1085.2,171,1106,213,1127,218.7C1147.8,224,1169,192,1190,176C1210.4,160,1231,160,1252,160C1273,160,1294,160,1315,165.3C1335.7,171,1357,181,1377,186.7C1398.3,192,1419,192,1430,192L1440,192L1440,0L1429.6,0C1419.1,0,1398,0,1377,0C1356.5,0,1336,0,1315,0C1293.9,0,1273,0,1252,0C1231.3,0,1210,0,1190,0C1168.7,0,1148,0,1127,0C1106.1,0,1085,0,1064,0C1043.5,0,1023,0,1002,0C980.9,0,960,0,939,0C918.3,0,897,0,877,0C855.7,0,835,0,814,0C793,0,772,0,751,0C730.4,0,710,0,689,0C667.8,0,647,0,626,0C605.2,0,584,0,563,0C542.6,0,522,0,501,0C480,0,459,0,438,0C417.4,0,397,0,376,0C354.8,0,334,0,313,0C292.2,0,271,0,250,0C229.6,0,209,0,188,0C167,0,146,0,125,0C104.3,0,83,0,63,0C41.7,0,21,0,10,0L0,0Z"></path></svg>